<?xml version="1.0" encoding="UTF-8"?>
<svg xmlns="http://www.w3.org/2000/svg" xmlns:xlink="http://www.w3.org/1999/xlink" width="540px" height="250px" viewBox="0 0 540 250" version="1.1">
<g id="surface1">
<rect x="0" y="0" width="540" height="250" style="fill:rgb(0%,71.764706%,100%);fill-opacity:1;stroke:none;"/>
<path style=" stroke:none;fill-rule:nonzero;fill:rgb(26.666667%,26.666667%,26.666667%);fill-opacity:0.101961;" d="M 45 41.667969 L 0 83.332031 L 90 83.332031 Z M 45 41.667969 "/>
<path style=" stroke:none;fill-rule:nonzero;fill:rgb(0%,0%,0%);fill-opacity:0.101961;" d="M 45 41.667969 L 90 0 L 0 0 Z M 45 41.667969 "/>
<path style=" stroke:none;fill-rule:nonzero;fill:rgb(66.666667%,66.666667%,66.666667%);fill-opacity:0.101961;" d="M 135 41.667969 L 180 0 L 90 0 Z M 135 41.667969 "/>
<path style=" stroke:none;fill-rule:nonzero;fill:rgb(86.666667%,86.666667%,86.666667%);fill-opacity:0.101961;" d="M 225 41.667969 L 180 83.332031 L 270 83.332031 Z M 225 41.667969 "/>
<path style=" stroke:none;fill-rule:nonzero;fill:rgb(60%,60%,60%);fill-opacity:0.101961;" d="M 225 41.667969 L 270 0 L 180 0 Z M 225 41.667969 "/>
<path style=" stroke:none;fill-rule:nonzero;fill:rgb(0%,0%,0%);fill-opacity:0.101961;" d="M 315 41.667969 L 270 83.332031 L 360 83.332031 Z M 315 41.667969 "/>
<path style=" stroke:none;fill-rule:nonzero;fill:rgb(86.666667%,86.666667%,86.666667%);fill-opacity:0.101961;" d="M 315 41.667969 L 360 0 L 270 0 Z M 315 41.667969 "/>
<path style=" stroke:none;fill-rule:nonzero;fill:rgb(26.666667%,26.666667%,26.666667%);fill-opacity:0.101961;" d="M 405 41.667969 L 360 83.332031 L 450 83.332031 Z M 405 41.667969 "/>
<path style=" stroke:none;fill-rule:nonzero;fill:rgb(100%,100%,100%);fill-opacity:0.101961;" d="M 405 41.667969 L 450 0 L 360 0 Z M 405 41.667969 "/>
<path style=" stroke:none;fill-rule:nonzero;fill:rgb(86.666667%,86.666667%,86.666667%);fill-opacity:0.101961;" d="M 495 41.667969 L 450 83.332031 L 540 83.332031 Z M 495 41.667969 "/>
<path style=" stroke:none;fill-rule:nonzero;fill:rgb(26.666667%,26.666667%,26.666667%);fill-opacity:0.101961;" d="M 495 41.667969 L 540 0 L 450 0 Z M 495 41.667969 "/>
<path style=" stroke:none;fill-rule:nonzero;fill:rgb(86.666667%,86.666667%,86.666667%);fill-opacity:0.101961;" d="M 45 125 L 0 166.667969 L 90 166.667969 Z M 45 125 "/>
<path style=" stroke:none;fill-rule:nonzero;fill:rgb(0%,0%,0%);fill-opacity:0.101961;" d="M 45 125 L 90 83.332031 L 0 83.332031 Z M 45 125 "/>
<path style=" stroke:none;fill-rule:nonzero;fill:rgb(40%,40%,40%);fill-opacity:0.101961;" d="M 135 125 L 90 166.667969 L 180 166.667969 Z M 135 125 "/>
<path style=" stroke:none;fill-rule:nonzero;fill:rgb(66.666667%,66.666667%,66.666667%);fill-opacity:0.101961;" d="M 135 125 L 180 83.332031 L 90 83.332031 Z M 135 125 "/>
<path style=" stroke:none;fill-rule:nonzero;fill:rgb(86.666667%,86.666667%,86.666667%);fill-opacity:0.101961;" d="M 225 125 L 180 166.667969 L 270 166.667969 Z M 225 125 "/>
<path style=" stroke:none;fill-rule:nonzero;fill:rgb(60%,60%,60%);fill-opacity:0.101961;" d="M 225 125 L 270 83.332031 L 180 83.332031 Z M 225 125 "/>
<path style=" stroke:none;fill-rule:nonzero;fill:rgb(60%,60%,60%);fill-opacity:0.101961;" d="M 315 125 L 270 166.667969 L 360 166.667969 Z M 315 125 "/>
<path style=" stroke:none;fill-rule:nonzero;fill:rgb(100%,100%,100%);fill-opacity:0.101961;" d="M 315 125 L 360 83.332031 L 270 83.332031 Z M 315 125 "/>
<path style=" stroke:none;fill-rule:nonzero;fill:rgb(0%,0%,0%);fill-opacity:0.101961;" d="M 405 125 L 360 166.667969 L 450 166.667969 Z M 405 125 "/>
<path style=" stroke:none;fill-rule:nonzero;fill:rgb(86.666667%,86.666667%,86.666667%);fill-opacity:0.101961;" d="M 405 125 L 450 83.332031 L 360 83.332031 Z M 405 125 "/>
<path style=" stroke:none;fill-rule:nonzero;fill:rgb(66.666667%,66.666667%,66.666667%);fill-opacity:0.101961;" d="M 495 125 L 450 166.667969 L 540 166.667969 Z M 495 125 "/>
<path style=" stroke:none;fill-rule:nonzero;fill:rgb(26.666667%,26.666667%,26.666667%);fill-opacity:0.101961;" d="M 495 125 L 540 83.332031 L 450 83.332031 Z M 495 125 "/>
<path style=" stroke:none;fill-rule:nonzero;fill:rgb(13.333333%,13.333333%,13.333333%);fill-opacity:0.101961;" d="M 45 208.332031 L 0 250 L 90 250 Z M 45 208.332031 "/>
<path style=" stroke:none;fill-rule:nonzero;fill:rgb(0%,0%,0%);fill-opacity:0.101961;" d="M 135 208.332031 L 90 250 L 180 250 Z M 135 208.332031 "/>
<path style=" stroke:none;fill-rule:nonzero;fill:rgb(86.666667%,86.666667%,86.666667%);fill-opacity:0.101961;" d="M 135 208.332031 L 180 166.667969 L 90 166.667969 Z M 135 208.332031 "/>
<path style=" stroke:none;fill-rule:nonzero;fill:rgb(0%,0%,0%);fill-opacity:0.101961;" d="M 225 208.332031 L 270 166.667969 L 180 166.667969 Z M 225 208.332031 "/>
<path style=" stroke:none;fill-rule:nonzero;fill:rgb(0%,0%,0%);fill-opacity:0.101961;" d="M 315 208.332031 L 270 250 L 360 250 Z M 315 208.332031 "/>
<path style=" stroke:none;fill-rule:nonzero;fill:rgb(26.666667%,26.666667%,26.666667%);fill-opacity:0.101961;" d="M 315 208.332031 L 360 166.667969 L 270 166.667969 Z M 315 208.332031 "/>
<path style=" stroke:none;fill-rule:nonzero;fill:rgb(66.666667%,66.666667%,66.666667%);fill-opacity:0.101961;" d="M 405 208.332031 L 360 250 L 450 250 Z M 405 208.332031 "/>
<path style=" stroke:none;fill-rule:nonzero;fill:rgb(40%,40%,40%);fill-opacity:0.101961;" d="M 405 208.332031 L 450 166.667969 L 360 166.667969 Z M 405 208.332031 "/>
<path style=" stroke:none;fill-rule:nonzero;fill:rgb(60%,60%,60%);fill-opacity:0.101961;" d="M 495 208.332031 L 450 250 L 540 250 Z M 495 208.332031 "/>
<path style=" stroke:none;fill-rule:nonzero;fill:rgb(60%,60%,60%);fill-opacity:0.101961;" d="M 90 0 L 45 41.667969 L 135 41.667969 Z M 90 0 "/>
<path style=" stroke:none;fill-rule:nonzero;fill:rgb(26.666667%,26.666667%,26.666667%);fill-opacity:0.101961;" d="M 180 0 L 135 41.667969 L 225 41.667969 Z M 180 0 "/>
<path style=" stroke:none;fill-rule:nonzero;fill:rgb(100%,100%,100%);fill-opacity:0.101961;" d="M 270 0 L 225 41.667969 L 315 41.667969 Z M 270 0 "/>
<path style=" stroke:none;fill-rule:nonzero;fill:rgb(0%,0%,0%);fill-opacity:0.101961;" d="M 450 0 L 405 41.667969 L 495 41.667969 Z M 450 0 "/>
<path style=" stroke:none;fill-rule:nonzero;fill:rgb(13.333333%,13.333333%,13.333333%);fill-opacity:0.101961;" d="M 0 83.332031 L -45 125 L 45 125 Z M 0 83.332031 "/>
<path style=" stroke:none;fill-rule:nonzero;fill:rgb(100%,100%,100%);fill-opacity:0.101961;" d="M 0 83.332031 L 45 41.667969 L -45 41.667969 Z M 0 83.332031 "/>
<path style=" stroke:none;fill-rule:nonzero;fill:rgb(100%,100%,100%);fill-opacity:0.101961;" d="M 90 83.332031 L 45 125 L 135 125 Z M 90 83.332031 "/>
<path style=" stroke:none;fill-rule:nonzero;fill:rgb(40%,40%,40%);fill-opacity:0.101961;" d="M 90 83.332031 L 135 41.667969 L 45 41.667969 Z M 90 83.332031 "/>
<path style=" stroke:none;fill-rule:nonzero;fill:rgb(13.333333%,13.333333%,13.333333%);fill-opacity:0.101961;" d="M 180 83.332031 L 135 125 L 225 125 Z M 180 83.332031 "/>
<path style=" stroke:none;fill-rule:nonzero;fill:rgb(100%,100%,100%);fill-opacity:0.101961;" d="M 180 83.332031 L 225 41.667969 L 135 41.667969 Z M 180 83.332031 "/>
<path style=" stroke:none;fill-rule:nonzero;fill:rgb(26.666667%,26.666667%,26.666667%);fill-opacity:0.101961;" d="M 270 83.332031 L 225 125 L 315 125 Z M 270 83.332031 "/>
<path style=" stroke:none;fill-rule:nonzero;fill:rgb(13.333333%,13.333333%,13.333333%);fill-opacity:0.101961;" d="M 270 83.332031 L 315 41.667969 L 225 41.667969 Z M 270 83.332031 "/>
<path style=" stroke:none;fill-rule:nonzero;fill:rgb(66.666667%,66.666667%,66.666667%);fill-opacity:0.101961;" d="M 360 83.332031 L 315 125 L 405 125 Z M 360 83.332031 "/>
<path style=" stroke:none;fill-rule:nonzero;fill:rgb(40%,40%,40%);fill-opacity:0.101961;" d="M 360 83.332031 L 405 41.667969 L 315 41.667969 Z M 360 83.332031 "/>
<path style=" stroke:none;fill-rule:nonzero;fill:rgb(100%,100%,100%);fill-opacity:0.101961;" d="M 450 83.332031 L 405 125 L 495 125 Z M 450 83.332031 "/>
<path style=" stroke:none;fill-rule:nonzero;fill:rgb(60%,60%,60%);fill-opacity:0.101961;" d="M 450 83.332031 L 495 41.667969 L 405 41.667969 Z M 450 83.332031 "/>
<path style=" stroke:none;fill-rule:nonzero;fill:rgb(0%,0%,0%);fill-opacity:0.101961;" d="M 0 166.667969 L -45 208.332031 L 45 208.332031 Z M 0 166.667969 "/>
<path style=" stroke:none;fill-rule:nonzero;fill:rgb(40%,40%,40%);fill-opacity:0.101961;" d="M 0 166.667969 L 45 125 L -45 125 Z M 0 166.667969 "/>
<path style=" stroke:none;fill-rule:nonzero;fill:rgb(66.666667%,66.666667%,66.666667%);fill-opacity:0.101961;" d="M 90 166.667969 L 45 208.332031 L 135 208.332031 Z M 90 166.667969 "/>
<path style=" stroke:none;fill-rule:nonzero;fill:rgb(26.666667%,26.666667%,26.666667%);fill-opacity:0.101961;" d="M 90 166.667969 L 135 125 L 45 125 Z M 90 166.667969 "/>
<path style=" stroke:none;fill-rule:nonzero;fill:rgb(26.666667%,26.666667%,26.666667%);fill-opacity:0.101961;" d="M 180 166.667969 L 135 208.332031 L 225 208.332031 Z M 180 166.667969 "/>
<path style=" stroke:none;fill-rule:nonzero;fill:rgb(60%,60%,60%);fill-opacity:0.101961;" d="M 180 166.667969 L 225 125 L 135 125 Z M 180 166.667969 "/>
<path style=" stroke:none;fill-rule:nonzero;fill:rgb(40%,40%,40%);fill-opacity:0.101961;" d="M 270 166.667969 L 315 125 L 225 125 Z M 270 166.667969 "/>
<path style=" stroke:none;fill-rule:nonzero;fill:rgb(13.333333%,13.333333%,13.333333%);fill-opacity:0.101961;" d="M 360 166.667969 L 315 208.332031 L 405 208.332031 Z M 360 166.667969 "/>
<path style=" stroke:none;fill-rule:nonzero;fill:rgb(100%,100%,100%);fill-opacity:0.101961;" d="M 450 166.667969 L 405 208.332031 L 495 208.332031 Z M 450 166.667969 "/>
<path style=" stroke:none;fill-rule:nonzero;fill:rgb(13.333333%,13.333333%,13.333333%);fill-opacity:0.101961;" d="M 450 166.667969 L 495 125 L 405 125 Z M 450 166.667969 "/>
<path style=" stroke:none;fill-rule:nonzero;fill:rgb(86.666667%,86.666667%,86.666667%);fill-opacity:0.101961;" d="M 0 250 L 45 208.332031 L -45 208.332031 Z M 0 250 "/>
<path style=" stroke:none;fill-rule:nonzero;fill:rgb(26.666667%,26.666667%,26.666667%);fill-opacity:0.101961;" d="M 90 250 L 135 208.332031 L 45 208.332031 Z M 90 250 "/>
<path style=" stroke:none;fill-rule:nonzero;fill:rgb(100%,100%,100%);fill-opacity:0.101961;" d="M 180 250 L 225 208.332031 L 135 208.332031 Z M 180 250 "/>
<path style=" stroke:none;fill-rule:nonzero;fill:rgb(66.666667%,66.666667%,66.666667%);fill-opacity:0.101961;" d="M 270 250 L 315 208.332031 L 225 208.332031 Z M 270 250 "/>
<path style=" stroke:none;fill-rule:nonzero;fill:rgb(100%,100%,100%);fill-opacity:0.101961;" d="M 360 250 L 405 208.332031 L 315 208.332031 Z M 360 250 "/>
<path style=" stroke:none;fill-rule:nonzero;fill:rgb(13.333333%,13.333333%,13.333333%);fill-opacity:0.101961;" d="M 450 250 L 495 208.332031 L 405 208.332031 Z M 450 250 "/>
<path style=" stroke:none;fill-rule:nonzero;fill:rgb(13.333333%,13.333333%,13.333333%);fill-opacity:0.101961;" d="M 540 83.332031 L 495 125 L 585 125 Z M 540 83.332031 "/>
<path style=" stroke:none;fill-rule:nonzero;fill:rgb(100%,100%,100%);fill-opacity:0.101961;" d="M 540 83.332031 L 585 41.667969 L 495 41.667969 Z M 540 83.332031 "/>
<path style=" stroke:none;fill-rule:nonzero;fill:rgb(0%,0%,0%);fill-opacity:0.101961;" d="M 540 166.667969 L 495 208.332031 L 585 208.332031 Z M 540 166.667969 "/>
<path style=" stroke:none;fill-rule:nonzero;fill:rgb(40%,40%,40%);fill-opacity:0.101961;" d="M 540 166.667969 L 585 125 L 495 125 Z M 540 166.667969 "/>
<path style=" stroke:none;fill-rule:nonzero;fill:rgb(86.666667%,86.666667%,86.666667%);fill-opacity:0.101961;" d="M 540 250 L 585 208.332031 L 495 208.332031 Z M 540 250 "/>
</g>
</svg>
